<svg xmlns="http://www.w3.org/2000/svg" xmlns:xlink="http://www.w3.org/1999/xlink" version="1.1" width="842pt" height="595pt" viewBox="0 0 842 595">
<defs>
<clipPath id="clip_0">
<path transform="matrix(.12,0,0,-.12,0,595)" d="M1021 0H5995V4960H1021V0"/>
</clipPath>
</defs>
<g clip-path="url(#clip_0)">
<g id="layer_1" data-name="">
<path transform="matrix(.12,0,0,-.12,0,595)" d="M5994 4955H4376L5994 4472ZM4376 4955 5994 4472H4376Z"/>
<path transform="matrix(.12,0,0,-.12,0,595)" stroke-width="0" stroke-linecap="butt" stroke-miterlimit="10" stroke-linejoin="miter" fill="none" stroke="#000000" d="M5994 4955H4376L5994 4472ZM4376 4955 5994 4472H4376Z"/>
<path transform="matrix(.12,0,0,-.12,0,595)" d="M3378 4210H2884L3378 2740ZM2884 4210 3378 2740H2884Z"/>
<path transform="matrix(.12,0,0,-.12,0,595)" stroke-width="0" stroke-linecap="butt" stroke-miterlimit="10" stroke-linejoin="miter" fill="none" stroke="#000000" d="M3378 4210H2884L3378 2740ZM2884 4210 3378 2740H2884Z"/>
<path transform="matrix(.12,0,0,-.12,0,595)" d="M2264 4231H1760L2264 2740ZM1760 4231 2264 2740H1760Z"/>
<path transform="matrix(.12,0,0,-.12,0,595)" stroke-width="0" stroke-linecap="butt" stroke-miterlimit="10" stroke-linejoin="miter" fill="none" stroke="#000000" d="M2264 4231H1760L2264 2740ZM1760 4231 2264 2740H1760Z"/>
<path transform="matrix(.12,0,0,-.12,0,595)" d="M3378 2740H1760L3378 2236ZM1760 2740 3378 2236H1760Z"/>
<path transform="matrix(.12,0,0,-.12,0,595)" stroke-width="0" stroke-linecap="butt" stroke-miterlimit="10" stroke-linejoin="miter" fill="none" stroke="#000000" d="M3378 2740H1760L3378 2236ZM1760 2740 3378 2236H1760Z"/>
<path transform="matrix(.12,0,0,-.12,0,595)" d="M2254 2236H1760L2254 766ZM1760 2236 2254 766H1760Z"/>
<path transform="matrix(.12,0,0,-.12,0,595)" stroke-width="0" stroke-linecap="butt" stroke-miterlimit="10" stroke-linejoin="miter" fill="none" stroke="#000000" d="M2254 2236H1760L2254 766ZM1760 2236 2254 766H1760Z"/>
<path transform="matrix(.12,0,0,-.12,0,595)" d="M5994 4472H5501L5994 493ZM5501 4472 5994 493H5501Z"/>
<path transform="matrix(.12,0,0,-.12,0,595)" stroke-width="0" stroke-linecap="butt" stroke-miterlimit="10" stroke-linejoin="miter" fill="none" stroke="#000000" d="M5994 4472H5501L5994 493ZM5501 4472 5994 493H5501Z"/>
<path transform="matrix(.12,0,0,-.12,0,595)" d="M3378 2236H2884L3378 493ZM2884 2236 3378 493H2884Z"/>
<path transform="matrix(.12,0,0,-.12,0,595)" stroke-width="0" stroke-linecap="butt" stroke-miterlimit="10" stroke-linejoin="miter" fill="none" stroke="#000000" d="M3378 2236H2884L3378 493ZM2884 2236 3378 493H2884Z"/>
<path transform="matrix(.12,0,0,-.12,0,595)" d="M5994 493H2884L5994 0ZM2884 493 5994 0H2884Z"/>
<path transform="matrix(.12,0,0,-.12,0,595)" stroke-width="0" stroke-linecap="butt" stroke-miterlimit="10" stroke-linejoin="miter" fill="none" stroke="#000000" d="M5994 493H2884L5994 0ZM2884 493 5994 0H2884Z"/>
<path transform="matrix(.12,0,0,-.12,0,595)" stroke-width="0" stroke-linecap="butt" stroke-miterlimit="10" stroke-linejoin="miter" fill="none" stroke="#000000" d="M4376 4472V4955H5994V0H2884V2236H2254V766H1760V4231H2264V2740H2884V4210H3378V493H5501V4472H4376"/>
<path transform="matrix(.12,0,0,-.12,0,595)" d="M4125 4950H1021L4125 4469ZM1021 4950 4125 4469H1021Z" fill="#989898"/>
<path transform="matrix(.12,0,0,-.12,0,595)" stroke-width="0" stroke-linecap="butt" stroke-miterlimit="10" stroke-linejoin="miter" fill="none" stroke="#989898" d="M4125 4950H1021L4125 4469ZM1021 4950 4125 4469H1021Z"/>
<path transform="matrix(.12,0,0,-.12,0,595)" d="M4125 4469H3641L4125 4217ZM3641 4469 4125 4217H3641Z" fill="#989898"/>
<path transform="matrix(.12,0,0,-.12,0,595)" stroke-width="0" stroke-linecap="butt" stroke-miterlimit="10" stroke-linejoin="miter" fill="none" stroke="#989898" d="M4125 4469H3641L4125 4217ZM3641 4469 4125 4217H3641Z"/>
<path transform="matrix(.12,0,0,-.12,0,595)" d="M5233 4217H4734L4655 2887ZM4734 4217 4655 2887H4125Z" fill="#989898"/>
<path transform="matrix(.12,0,0,-.12,0,595)" stroke-width="0" stroke-linecap="butt" stroke-miterlimit="10" stroke-linejoin="miter" fill="none" stroke="#989898" d="M5233 4217H4734L4655 2887ZM4734 4217 4655 2887H4125Z"/>
<path transform="matrix(.12,0,0,-.12,0,595)" d="M4125 4217H3641L4125 2887ZM3641 4217 4125 2887H3641Z" fill="#989898"/>
<path transform="matrix(.12,0,0,-.12,0,595)" stroke-width="0" stroke-linecap="butt" stroke-miterlimit="10" stroke-linejoin="miter" fill="none" stroke="#989898" d="M4125 4217H3641L4125 2887ZM3641 4217 4125 2887H3641Z"/>
<path transform="matrix(.12,0,0,-.12,0,595)" d="M4655 2887H3641L4483 2491ZM3641 2887 4483 2491H3641Z" fill="#989898"/>
<path transform="matrix(.12,0,0,-.12,0,595)" stroke-width="0" stroke-linecap="butt" stroke-miterlimit="10" stroke-linejoin="miter" fill="none" stroke="#989898" d="M4655 2887H3641L4483 2491ZM3641 2887 4483 2491H3641Z"/>
<path transform="matrix(.12,0,0,-.12,0,595)" d="M4483 2491H3641L4664 2079ZM3641 2491 4664 2079H3641Z" fill="#989898"/>
<path transform="matrix(.12,0,0,-.12,0,595)" stroke-width="0" stroke-linecap="butt" stroke-miterlimit="10" stroke-linejoin="miter" fill="none" stroke="#989898" d="M4483 2491H3641L4664 2079ZM3641 2491 4664 2079H3641Z"/>
<path transform="matrix(.12,0,0,-.12,0,595)" d="M4143 2079H3641L4143 776ZM3641 2079 4143 776H3641Z" fill="#989898"/>
<path transform="matrix(.12,0,0,-.12,0,595)" stroke-width="0" stroke-linecap="butt" stroke-miterlimit="10" stroke-linejoin="miter" fill="none" stroke="#989898" d="M4143 2079H3641L4143 776ZM3641 2079 4143 776H3641Z"/>
<path transform="matrix(.12,0,0,-.12,0,595)" d="M4664 2079H4143L5248 753ZM4143 2079 5248 753H4738Z" fill="#989898"/>
<path transform="matrix(.12,0,0,-.12,0,595)" stroke-width="0" stroke-linecap="butt" stroke-miterlimit="10" stroke-linejoin="miter" fill="none" stroke="#989898" d="M4664 2079H4143L5248 753ZM4143 2079 5248 753H4738Z"/>
<path transform="matrix(.12,0,0,-.12,0,595)" d="M1532 4469H1021L1532 504ZM1021 4469 1532 504H1021Z" fill="#989898"/>
<path transform="matrix(.12,0,0,-.12,0,595)" stroke-width="0" stroke-linecap="butt" stroke-miterlimit="10" stroke-linejoin="miter" fill="none" stroke="#989898" d="M1532 4469H1021L1532 504ZM1021 4469 1532 504H1021Z"/>
<path transform="matrix(.12,0,0,-.12,0,595)" d="M2639 504H1021L2639 14ZM1021 504 2639 14H1021Z" fill="#989898"/>
<path transform="matrix(.12,0,0,-.12,0,595)" stroke-width="0" stroke-linecap="butt" stroke-miterlimit="10" stroke-linejoin="miter" fill="none" stroke="#989898" d="M2639 504H1021L2639 14ZM1021 504 2639 14H1021Z"/>
<path transform="matrix(.12,0,0,-.12,0,595)" stroke-width="0" stroke-linecap="butt" stroke-miterlimit="10" stroke-linejoin="miter" fill="none" stroke="#989898" d="M1021 4959V14H2639V504H1532V4469H3641V776H4143V2079L4738 753H5248L4483 2491 5233 4217H4734L4125 2887V4950H1021"/>
</g>
</g>
</svg>
